<svg xmlns="http://www.w3.org/2000/svg" width="500" height="500" viewBox="0 0 500 500">
<g>
<path d="M 500.00 250.00 L 500.00 500.00 L 167.00 500.00 L 167.00 420.08 C167.00,376.13 167.27,339.45 167.61,338.58 C168.15,337.16 176.39,337.00 250.55,337.00 C315.32,337.00 333.05,336.73 333.69,335.75 C334.14,335.06 334.73,297.83 335.00,253.00 L 335.50 171.50 L 415.94 171.24 C479.63,171.04 496.54,171.25 497.17,172.24 C497.61,172.93 497.98,246.96 497.98,336.75 C497.99,444.91 498.34,500.00 499.00,500.00 C499.66,500.00 500.00,416.00 500.00,250.00 Z" fill="rgb(4,137,128)"/>
<path d="M 167.00 500.00 L 166.00 500.00 L 166.00 335.01 L 250.25 334.76 L 333.83 334.50 C333.78,335.26 333.73,335.68 333.69,335.75 C333.05,336.73 315.32,337.00 250.55,337.00 C176.39,337.00 168.15,337.16 167.61,338.58 C167.27,339.45 167.00,376.13 167.00,420.08 Z" fill="rgb(22,129,122)"/>
<path d="M 0.00 0.00 L 333.01 0.00 L 332.50 169.50 L 167.50 170.50 L 167.22 250.50 C167.07,294.50 167.20,331.52 167.50,332.76 L 168.04 335.01 L 166.00 335.01 L 166.00 500.00 L 165.00 500.00 L 165.00 418.11 C165.00,344.35 164.84,336.15 163.42,335.61 C162.55,335.27 125.42,335.00 80.92,335.00 L 0.00 335.00 ZM 415.94 171.24 L 335.50 171.50 L 417.50 170.99 C462.60,170.70 499.61,170.36 499.75,170.24 C499.89,170.11 500.00,131.75 500.00,85.00 L 500.00 250.00 C500.00,416.00 499.66,500.00 499.00,500.00 C498.34,500.00 497.99,444.91 497.98,336.75 C497.98,246.96 497.61,172.93 497.17,172.24 C496.54,171.25 479.63,171.04 415.94,171.24 Z" fill="rgb(118,143,205)"/>
<path d="M 0.00 417.50 L 0.00 335.00 L 80.92 335.00 C125.42,335.00 162.55,335.27 163.42,335.61 C164.84,336.15 165.00,344.35 165.00,418.11 L 165.00 500.00 L 82.50 500.00 L 0.00 500.00 L 0.00 417.50 ZM 167.50 332.76 C167.20,331.52 167.07,294.50 167.22,250.50 L 167.50 170.50 L 250.00 170.00 L 332.50 169.50 L 332.76 84.75 L 333.01 0.00 L 416.51 0.00 L 500.00 0.00 L 500.00 85.00 C500.00,131.75 499.89,170.11 499.75,170.24 C499.61,170.36 462.60,170.70 417.50,170.99 L 335.50 171.50 L 335.00 253.00 L 334.50 334.50 L 251.27 334.76 L 168.04 335.01 L 167.50 332.76 Z" fill="rgb(239,71,112)"/>
</g>
</svg>